# xmcd CD database file
# Copyright (C) 1997 Ti Kan
#
# Track frame offsets:
#  150
#  18725
#  37135
#  54955
#  75897
#  94225
#  116582
#  141612
#  166620
#
# Disc length: 2493 seconds
#
# Revision: 1
# Processed by: cddbd v1.4b41PL1 Copyright (c) Steve Scherf et al.
# Submitted via: CDWizzard Release:4.32
#
DISCID=6f09bb09
DTITLE=Atlantic Starr - As The Band Turns
DYEAR=1900
DGENRE=
TTITLE0=Freak-A-Ristic
TTITLE1=Cool, Calm Collected
TTITLE2=One Love
TTITLE3=In The Heat Of Pashion
TTITLE4=If Your Heart Isn't In It
TTITLE5=Silver Shadow
TTITLE6=Let's Start It Over
TTITLE7=Secret Lovers
TTITLE8=Thank You
EXTD=
EXTT0=
EXTT1=
EXTT2=
EXTT3=
EXTT4=
EXTT5=
EXTT6=
EXTT7=
EXTT8=
PLAYORDER=
